<svg version="1.1" id="Icons" xmlns="http://www.w3.org/2000/svg" xmlns:xlink="http://www.w3.org/1999/xlink" x="0px" y="0px" viewBox="0 0 32 32" style="enable-background:new 0 0 32 32;" xml:space="preserve">
<style type="text/css">
	.st0{fill:none;stroke:#000000;stroke-width:2;stroke-linecap:round;stroke-linejoin:round;stroke-miterlimit:10;}
	.st1{fill:none;stroke:#000000;stroke-width:2;stroke-linejoin:round;stroke-miterlimit:10;}
</style>
<path class="st0" d="M20,25c0,2.21-1.79,4-4,4s-4-1.79-4-4s4-8,4-8S20,22.79,20,25z" id="id_101" style="stroke: rgb(255, 255, 255);"></path>
<path class="st0" d="M19,22c4.97,0,9-4.03,9-9s-4.03-9-9-9c-4.28,0-7.86,2.99-8.77,7H9.5C6.48,11,4,13.47,4,16.5
	c0,2.08,1.17,3.9,2.88,4.83C7.66,21.76,8.55,22,9.5,22h1.21h2.3" id="id_102" style="stroke: rgb(255, 255, 255);"></path>
</svg>